<mxfile host="65bd71144e" scale="1" border="30">
    <diagram id="0kZj5fdjVBCWPUh-rSFr" name="Страница 1">
        <mxGraphModel dx="649" dy="426" grid="0" gridSize="10" guides="1" tooltips="1" connect="1" arrows="1" fold="1" page="1" pageScale="1" pageWidth="827" pageHeight="1169" background="#ffffff" math="0" shadow="0">
            <root>
                <mxCell id="0"/>
                <mxCell id="1" parent="0"/>
                <mxCell id="2" value="" style="rounded=0;whiteSpace=wrap;html=1;fillColor=#f5f5f5;strokeColor=#666666;fontColor=#333333;" vertex="1" parent="1">
                    <mxGeometry x="157" y="47" width="209" height="249" as="geometry"/>
                </mxCell>
                <mxCell id="3" value="" style="rounded=0;whiteSpace=wrap;html=1;fillColor=#f5f5f5;strokeColor=#666666;fontColor=#333333;" vertex="1" parent="1">
                    <mxGeometry x="414" y="47" width="209" height="252" as="geometry"/>
                </mxCell>
                <mxCell id="4" value="Email" style="rounded=0;whiteSpace=wrap;html=1;fillColor=#f5f5f5;fontColor=#333333;strokeColor=#333333;" vertex="1" parent="1">
                    <mxGeometry x="201.5" y="147" width="120" height="23" as="geometry"/>
                </mxCell>
                <mxCell id="5" value="Password" style="rounded=0;whiteSpace=wrap;html=1;fillColor=#f5f5f5;fontColor=#333333;strokeColor=#333333;" vertex="1" parent="1">
                    <mxGeometry x="201.5" y="179" width="120" height="23" as="geometry"/>
                </mxCell>
                <mxCell id="7" value="Registration" style="text;html=1;strokeColor=none;fillColor=none;align=center;verticalAlign=middle;whiteSpace=wrap;rounded=0;fontColor=#4D4D4D;fontStyle=4" vertex="1" parent="1">
                    <mxGeometry x="231.5" y="202" width="60" height="30" as="geometry"/>
                </mxCell>
                <mxCell id="8" value="Login" style="rounded=1;whiteSpace=wrap;html=1;strokeColor=#666666;fillColor=#f5f5f5;gradientColor=#b3b3b3;fontColor=#1A1A1A;" vertex="1" parent="1">
                    <mxGeometry x="171" y="244" width="181" height="29" as="geometry"/>
                </mxCell>
                <mxCell id="9" value="Sign in" style="text;html=1;strokeColor=none;fillColor=none;align=center;verticalAlign=middle;whiteSpace=wrap;rounded=0;fontColor=#4D4D4D;" vertex="1" parent="1">
                    <mxGeometry x="228" y="65" width="60" height="30" as="geometry"/>
                </mxCell>
                <mxCell id="10" value="Registration" style="text;html=1;strokeColor=none;fillColor=none;align=center;verticalAlign=middle;whiteSpace=wrap;rounded=0;fontColor=#4D4D4D;" vertex="1" parent="1">
                    <mxGeometry x="483.25" y="68" width="70.5" height="30" as="geometry"/>
                </mxCell>
                <mxCell id="13" value="Email" style="rounded=0;whiteSpace=wrap;html=1;fillColor=#f5f5f5;fontColor=#333333;strokeColor=#333333;" vertex="1" parent="1">
                    <mxGeometry x="458.5" y="103" width="120" height="23" as="geometry"/>
                </mxCell>
                <mxCell id="14" value="Password" style="rounded=0;whiteSpace=wrap;html=1;fillColor=#f5f5f5;fontColor=#333333;strokeColor=#333333;" vertex="1" parent="1">
                    <mxGeometry x="458.5" y="136" width="120" height="23" as="geometry"/>
                </mxCell>
                <mxCell id="15" value="Confirm password" style="rounded=0;whiteSpace=wrap;html=1;fillColor=#f5f5f5;fontColor=#333333;strokeColor=#333333;" vertex="1" parent="1">
                    <mxGeometry x="458.5" y="170" width="120" height="23" as="geometry"/>
                </mxCell>
                <mxCell id="16" value="" style="rounded=0;whiteSpace=wrap;html=1;fillColor=#f5f5f5;strokeColor=#666666;fontColor=#333333;" vertex="1" parent="1">
                    <mxGeometry x="157.5" y="340" width="209" height="399" as="geometry"/>
                </mxCell>
                <mxCell id="21" value="Main screen" style="text;html=1;strokeColor=none;fillColor=none;align=center;verticalAlign=middle;whiteSpace=wrap;rounded=0;fontColor=#4D4D4D;" vertex="1" parent="1">
                    <mxGeometry x="165.38" y="344" width="74.5" height="30" as="geometry"/>
                </mxCell>
                <mxCell id="24" value="&lt;font color=&quot;#e6e6e6&quot;&gt;Info&lt;/font&gt;" style="swimlane;whiteSpace=wrap;html=1;strokeColor=#333333;fontColor=#1A1A1A;" vertex="1" parent="1">
                    <mxGeometry x="165.38" y="388" width="191.62" height="87" as="geometry">
                        <mxRectangle x="173" y="386" width="57" height="26" as="alternateBounds"/>
                    </mxGeometry>
                </mxCell>
                <mxCell id="25" value="Area&lt;br&gt;95" style="rounded=0;whiteSpace=wrap;html=1;labelBackgroundColor=none;strokeColor=#666666;fillColor=#f5f5f5;fontColor=#333333;" vertex="1" parent="24">
                    <mxGeometry x="7" y="34" width="49" height="41" as="geometry"/>
                </mxCell>
                <mxCell id="26" value="Time&lt;br&gt;123" style="rounded=0;whiteSpace=wrap;html=1;labelBackgroundColor=none;strokeColor=#666666;fillColor=#f5f5f5;fontColor=#333333;" vertex="1" parent="24">
                    <mxGeometry x="71.62" y="34" width="49" height="41" as="geometry"/>
                </mxCell>
                <mxCell id="27" value="Bat&lt;br&gt;84%" style="rounded=0;whiteSpace=wrap;html=1;labelBackgroundColor=none;strokeColor=#666666;fillColor=#f5f5f5;fontColor=#333333;" vertex="1" parent="24">
                    <mxGeometry x="135.62" y="34" width="49" height="41" as="geometry"/>
                </mxCell>
                <mxCell id="31" value="Start/Pause" style="rounded=1;whiteSpace=wrap;html=1;strokeColor=#666666;fillColor=#f5f5f5;gradientColor=#b3b3b3;fontColor=#1A1A1A;" vertex="1" parent="1">
                    <mxGeometry x="165.38" y="640" width="95.25" height="42" as="geometry"/>
                </mxCell>
                <mxCell id="32" value="Submit" style="rounded=1;whiteSpace=wrap;html=1;strokeColor=#666666;fillColor=#f5f5f5;gradientColor=#b3b3b3;fontColor=#1A1A1A;" vertex="1" parent="1">
                    <mxGeometry x="428" y="244" width="181" height="29" as="geometry"/>
                </mxCell>
                <mxCell id="34" value="Dock station" style="rounded=1;whiteSpace=wrap;html=1;strokeColor=#666666;fillColor=#f5f5f5;gradientColor=#b3b3b3;fontColor=#1A1A1A;" vertex="1" parent="1">
                    <mxGeometry x="263.38" y="640" width="95.25" height="42" as="geometry"/>
                </mxCell>
                <mxCell id="38" value="Select program" style="strokeWidth=1;shadow=0;dashed=0;align=center;html=1;shape=mxgraph.mockup.forms.comboBox;strokeColor=#666666;fillColor=#f5f5f5;align=left;fillColor2=#aaddff;mainText=;fontSize=17;spacingLeft=3;labelBackgroundColor=none;gradientColor=#b3b3b3;fontColor=#333333;" vertex="1" parent="1">
                    <mxGeometry x="164.01" y="585" width="194.62" height="30" as="geometry"/>
                </mxCell>
                <mxCell id="39" value="Menu" style="rounded=1;whiteSpace=wrap;html=1;strokeColor=#666666;fillColor=#f5f5f5;gradientColor=#b3b3b3;fontColor=#1A1A1A;" vertex="1" parent="1">
                    <mxGeometry x="294" y="348" width="64.63" height="30" as="geometry"/>
                </mxCell>
                <mxCell id="40" value="" style="shape=cylinder3;whiteSpace=wrap;html=1;boundedLbl=1;backgroundOutline=1;size=15;labelBackgroundColor=none;strokeColor=#82b366;fillColor=#d5e8d4;gradientColor=#97d077;" vertex="1" parent="1">
                    <mxGeometry x="215" y="509" width="86" height="50" as="geometry"/>
                </mxCell>
                <mxCell id="41" value="iRobot" style="text;html=1;strokeColor=none;fillColor=none;align=center;verticalAlign=middle;whiteSpace=wrap;rounded=0;labelBackgroundColor=none;fontColor=#333333;" vertex="1" parent="1">
                    <mxGeometry x="228" y="509" width="60" height="30" as="geometry"/>
                </mxCell>
                <mxCell id="42" value="" style="rounded=0;whiteSpace=wrap;html=1;fillColor=#f5f5f5;strokeColor=#666666;fontColor=#333333;" vertex="1" parent="1">
                    <mxGeometry x="414" y="340" width="209" height="399" as="geometry"/>
                </mxCell>
                <mxCell id="43" value="Menu" style="text;html=1;strokeColor=none;fillColor=none;align=center;verticalAlign=middle;whiteSpace=wrap;rounded=0;fontColor=#4D4D4D;" vertex="1" parent="1">
                    <mxGeometry x="420.51" y="344" width="41.49" height="30" as="geometry"/>
                </mxCell>
                <mxCell id="44" value="&lt;font color=&quot;#e6e6e6&quot;&gt;Areas&lt;/font&gt;" style="swimlane;whiteSpace=wrap;html=1;strokeColor=#333333;fontColor=#1A1A1A;" vertex="1" parent="1">
                    <mxGeometry x="420.51" y="419" width="191.62" height="87" as="geometry">
                        <mxRectangle x="173" y="386" width="57" height="26" as="alternateBounds"/>
                    </mxGeometry>
                </mxCell>
                <mxCell id="45" value="Area 1" style="rounded=0;whiteSpace=wrap;html=1;labelBackgroundColor=none;strokeColor=#666666;fillColor=#f5f5f5;fontColor=#333333;" vertex="1" parent="44">
                    <mxGeometry x="7" y="34" width="49" height="41" as="geometry"/>
                </mxCell>
                <mxCell id="46" value="Area 2" style="rounded=0;whiteSpace=wrap;html=1;labelBackgroundColor=none;strokeColor=#666666;fillColor=#f5f5f5;fontColor=#333333;" vertex="1" parent="44">
                    <mxGeometry x="71.62" y="34" width="49" height="41" as="geometry"/>
                </mxCell>
                <mxCell id="47" value="Area 3" style="rounded=0;whiteSpace=wrap;html=1;labelBackgroundColor=none;strokeColor=#666666;fillColor=#f5f5f5;fontColor=#333333;" vertex="1" parent="44">
                    <mxGeometry x="135.62" y="34" width="49" height="41" as="geometry"/>
                </mxCell>
                <mxCell id="51" value="Connect robot" style="rounded=1;whiteSpace=wrap;html=1;strokeColor=#666666;fillColor=#f5f5f5;gradientColor=#b3b3b3;fontColor=#1A1A1A;" vertex="1" parent="1">
                    <mxGeometry x="427.82" y="378" width="177" height="30" as="geometry"/>
                </mxCell>
                <mxCell id="54" value="&lt;font color=&quot;#e6e6e6&quot;&gt;Schedules&lt;/font&gt;" style="swimlane;whiteSpace=wrap;html=1;strokeColor=#333333;fontColor=#1A1A1A;" vertex="1" parent="1">
                    <mxGeometry x="420.51" y="517" width="191.62" height="87" as="geometry">
                        <mxRectangle x="173" y="386" width="57" height="26" as="alternateBounds"/>
                    </mxGeometry>
                </mxCell>
                <mxCell id="55" value="Item 1" style="rounded=0;whiteSpace=wrap;html=1;labelBackgroundColor=none;strokeColor=#666666;fillColor=#f5f5f5;fontColor=#333333;" vertex="1" parent="54">
                    <mxGeometry x="7" y="34" width="49" height="41" as="geometry"/>
                </mxCell>
                <mxCell id="56" value="Item 2" style="rounded=0;whiteSpace=wrap;html=1;labelBackgroundColor=none;strokeColor=#666666;fillColor=#f5f5f5;fontColor=#333333;" vertex="1" parent="54">
                    <mxGeometry x="71.62" y="34" width="49" height="41" as="geometry"/>
                </mxCell>
                <mxCell id="57" value="Item 3" style="rounded=0;whiteSpace=wrap;html=1;labelBackgroundColor=none;strokeColor=#666666;fillColor=#f5f5f5;fontColor=#333333;" vertex="1" parent="54">
                    <mxGeometry x="135.62" y="34" width="49" height="41" as="geometry"/>
                </mxCell>
                <mxCell id="66" value="&lt;font color=&quot;#e6e6e6&quot;&gt;Service&lt;/font&gt;" style="swimlane;whiteSpace=wrap;html=1;strokeColor=#333333;fontColor=#1A1A1A;" vertex="1" parent="1">
                    <mxGeometry x="420.51" y="617.5" width="191.62" height="87" as="geometry">
                        <mxRectangle x="173" y="386" width="57" height="26" as="alternateBounds"/>
                    </mxGeometry>
                </mxCell>
                <mxCell id="67" value="Brush&lt;br&gt;level" style="rounded=0;whiteSpace=wrap;html=1;labelBackgroundColor=none;strokeColor=#666666;fillColor=#f5f5f5;fontColor=#333333;" vertex="1" parent="66">
                    <mxGeometry x="7" y="34" width="49" height="41" as="geometry"/>
                </mxCell>
                <mxCell id="68" value="Sensor&lt;br&gt;level" style="rounded=0;whiteSpace=wrap;html=1;labelBackgroundColor=none;strokeColor=#666666;fillColor=#f5f5f5;fontColor=#333333;" vertex="1" parent="66">
                    <mxGeometry x="71.62" y="34" width="49" height="41" as="geometry"/>
                </mxCell>
                <mxCell id="69" value="Filter&lt;br&gt;level" style="rounded=0;whiteSpace=wrap;html=1;labelBackgroundColor=none;strokeColor=#666666;fillColor=#f5f5f5;fontColor=#333333;" vertex="1" parent="66">
                    <mxGeometry x="135.62" y="34" width="49" height="41" as="geometry"/>
                </mxCell>
            </root>
        </mxGraphModel>
    </diagram>
</mxfile>